<svg width="124" height="173" viewBox="0 0 124 173" fill="none" xmlns="http://www.w3.org/2000/svg">
<g filter="url(#filter0_f_9_292)">
<path d="M47.0906 133.181L77.6474 133.32L77.5124 163L46.9556 162.861L47.0906 133.181ZM10 59.0672C10.9091 39.5583 17.7738 25.7593 30.5941 17.6702C38.6842 12.5036 48.6082 9.94718 60.366 10.0008C75.8153 10.0713 88.616 13.8269 98.7679 21.2677C108.988 28.7087 114.065 39.6866 113.999 54.2013C113.959 63.1018 111.703 70.5887 107.232 76.6618C104.618 80.3471 99.6058 85.0485 92.1968 90.7659L84.8908 96.3811C80.9119 99.4439 78.2637 103.026 76.9462 107.128C76.114 109.726 75.6513 113.764 75.558 119.241L47.8724 119.114C48.3352 107.546 49.4652 99.5743 51.2625 95.2007C53.0601 90.7585 57.6634 85.6787 65.0724 79.9613L72.5844 74.1416C75.0537 72.3043 77.0454 70.2936 78.5592 68.1096C81.3107 64.3565 82.6968 60.2205 82.7173 55.7018C82.741 50.4984 81.2244 45.7673 78.1675 41.5084C75.1793 37.1813 69.652 34.9994 61.5855 34.9626C53.6558 34.9264 48.0042 37.5366 44.6306 42.7932C41.3253 48.05 39.6598 53.5198 39.6339 59.2024L10 59.0672Z" fill="#00D5E2"/>
</g>
<defs>
<filter id="filter0_f_9_292" x="0" y="0" width="124" height="173" filterUnits="userSpaceOnUse" color-interpolation-filters="sRGB">
<feFlood flood-opacity="0" result="BackgroundImageFix"/>
<feBlend mode="normal" in="SourceGraphic" in2="BackgroundImageFix" result="shape"/>
<feGaussianBlur stdDeviation="5" result="effect1_foregroundBlur_9_292"/>
</filter>
</defs>
</svg>
