<svg width="171" height="241" viewBox="0 0 171 241" fill="none" xmlns="http://www.w3.org/2000/svg">
<g filter="url(#filter0_f_9_290)">
<path d="M63.5528 187.64L107.672 187.841L107.477 230.642L63.3579 230.441L63.5528 187.64ZM10 80.7601C11.3126 52.6262 21.2241 32.7266 39.7345 21.0613C51.4153 13.6105 65.744 9.92383 82.7204 10.0012C105.027 10.1028 123.509 15.5188 138.167 26.2492C152.923 36.98 160.254 52.8112 160.158 73.7429C160.1 86.5784 156.843 97.3752 150.387 106.133C146.612 111.448 139.376 118.228 128.679 126.473L118.13 134.571C112.385 138.988 108.562 144.154 106.659 150.069C105.458 153.816 104.79 159.638 104.655 167.537L64.6816 167.354C65.3498 150.671 66.9814 139.176 69.5763 132.868C72.1718 126.462 78.8182 119.137 89.5156 110.892L100.362 102.499C103.927 99.8493 106.803 96.9497 108.988 93.8001C112.961 88.3877 114.962 82.4233 114.992 75.9068C115.026 68.403 112.837 61.5802 108.423 55.4384C104.108 49.1983 96.1278 46.0518 84.4812 45.9987C73.0319 45.9465 64.8719 49.7107 60.0009 57.2912C55.2287 64.8722 52.8239 72.7601 52.7866 80.9551L10 80.7601Z" fill="#2FC18C"/>
</g>
<defs>
<filter id="filter0_f_9_290" x="0" y="0" width="170.159" height="240.642" filterUnits="userSpaceOnUse" color-interpolation-filters="sRGB">
<feFlood flood-opacity="0" result="BackgroundImageFix"/>
<feBlend mode="normal" in="SourceGraphic" in2="BackgroundImageFix" result="shape"/>
<feGaussianBlur stdDeviation="5" result="effect1_foregroundBlur_9_290"/>
</filter>
</defs>
</svg>
