<svg width="112" height="155" viewBox="0 0 112 155" fill="none" xmlns="http://www.w3.org/2000/svg">
<g filter="url(#filter0_f_9_293)">
<path d="M42.6201 118.204L69.4939 118.326L69.3751 144.397L42.5014 144.275L42.6201 118.204ZM10 53.1014C10.7995 35.9644 16.8368 23.8432 28.1119 16.7376C35.2269 12.1992 43.9548 9.9536 54.2955 10.0007C67.8826 10.0626 79.1404 13.3616 88.0688 19.8977C97.0572 26.434 101.522 36.0772 101.464 48.8271C101.429 56.6454 99.4449 63.222 95.5127 68.5567C93.2133 71.794 88.8056 75.9237 82.2896 80.946L75.8642 85.8784C72.3649 88.5689 70.0359 91.7157 68.8772 95.319C68.1453 97.6011 67.7384 101.148 67.6564 105.959L43.3076 105.848C43.7146 95.6855 44.7085 88.6834 46.2891 84.8415C47.8701 80.9395 51.9185 76.4773 58.4345 71.455L65.0411 66.343C67.2128 64.729 68.9644 62.9628 70.2958 61.0443C72.7157 57.7475 73.9347 54.1145 73.9528 50.1451C73.9736 45.5744 72.6398 41.4185 69.9513 37.6774C67.3233 33.8765 62.4622 31.9598 55.368 31.9275C48.394 31.8957 43.4235 34.1886 40.4566 38.806C37.5497 43.4237 36.0849 48.2284 36.0622 53.2202L10 53.1014Z" fill="#EA5D5D"/>
</g>
<defs>
<filter id="filter0_f_9_293" x="0" y="0" width="111.465" height="154.397" filterUnits="userSpaceOnUse" color-interpolation-filters="sRGB">
<feFlood flood-opacity="0" result="BackgroundImageFix"/>
<feBlend mode="normal" in="SourceGraphic" in2="BackgroundImageFix" result="shape"/>
<feGaussianBlur stdDeviation="5" result="effect1_foregroundBlur_9_293"/>
</filter>
</defs>
</svg>
